<?xml version="1.0" encoding="utf-8"?>
<!-- Generator: Adobe Illustrator 23.0.4, SVG Export Plug-In . SVG Version: 6.00 Build 0)  -->
<svg version="1.1" id="Layer_1" xmlns="http://www.w3.org/2000/svg" xmlns:xlink="http://www.w3.org/1999/xlink" x="0px" y="0px"
	 viewBox="0 0 105 105" style="enable-background:new 0 0 105 105;" xml:space="preserve">
<style type="text/css">
	.st0{fill:none;stroke:#00A1E1;stroke-width:2.0396;stroke-miterlimit:10;}
	.st1{fill:none;stroke:#00A1E1;stroke-width:2.0396;stroke-linecap:round;stroke-linejoin:round;stroke-miterlimit:10;}
</style>
<g>
	<circle class="st0" cx="52.5" cy="52.5" r="51.5"/>
	<g>
		<path class="st1" d="M55,25.3l2.3,7.1c0.3,1.1,1.4,1.8,2.5,1.8l7.5-0.1c2.6,0,3.6,3.3,1.6,4.8l-6.1,4.4c-0.9,0.7-1.3,1.9-1,3
			l2.4,7.1c0.8,2.4-2,4.5-4.1,3l-6-4.4c-0.9-0.7-2.2-0.7-3.1,0l-6,4.4c-2.1,1.5-4.9-0.5-4.1-3l2.4-7.1c0.4-1.1,0-2.3-1-3L36.2,39
			c-2.1-1.5-1-4.8,1.6-4.8l7.5,0.1c1.2,0,2.2-0.7,2.5-1.8l2.3-7.1C50.8,22.9,54.3,22.9,55,25.3z"/>
		<circle class="st1" cx="52.5" cy="42.1" r="4.1"/>
		<path class="st1" d="M49.4,53.1l-2.9,16.1h12l-2.9-16.1c0,0-1.4-1.6-3.1-1.6S49.4,53.1,49.4,53.1z"/>
		<rect x="40.8" y="69.1" class="st1" width="23.5" height="6.2"/>
		<rect x="35.1" y="75.4" class="st1" width="34.8" height="6.2"/>
	</g>
	<line class="st1" x1="35.4" y1="25.1" x2="35.4" y2="29.4"/>
	<line class="st1" x1="26.2" y1="34.6" x2="30.5" y2="34.6"/>
</g>
</svg>
