<svg xmlns="http://www.w3.org/2000/svg" xmlns:xlink="http://www.w3.org/1999/xlink" viewBox="0 0 103 103"><g fill="none" stroke="#00a1e1" stroke-width="2"><circle cx="51.5" cy="51.5" r="50.5"/><ellipse cx="51.5" cy="29.4" rx="12.1" ry="5.1"/><g stroke-miterlimit="10"><path d="M39.4 29.4v17.4m24.2-17.4v27.1m-12.1-4s0 .1 0 0c10.7-.3 12.1-3.9 12.1-5.1v-2"/><use xlink:href="#B"/><use xlink:href="#B" y="-6"/></g><ellipse cx="39.4" cy="51.8" rx="12.1" ry="5.1"/><g stroke-miterlimit="10"><path d="M27.4 51.8v18m24.1-18v18"/><use xlink:href="#B" x="-12" y="28.4"/><use xlink:href="#B" x="-12" y="22.4"/><use xlink:href="#B" x="-12" y="16.4"/></g><ellipse cx="63.6" cy="61.6" rx="12.1" ry="5.1"/><g stroke-miterlimit="10"><path d="M51.5 63.8v9.8m24.1-12v12"/><use xlink:href="#B" x="12.1" y="32.1"/><use xlink:href="#B" x="12.1" y="26.1"/><path d="M63.6 51.4v2c0 .6-.3 1.7-2.3 3.1m-9.8 2.4s1.2 0 2-.1"/></g></g><defs ><path id="B" d="M39.4 39.2v2.3c0 1.2 1.7 4.8 12.1 5.1 10.7-.3 12.1-3.9 12.1-5.1v-2"/></defs></svg>