<?xml version="1.0" encoding="utf-8"?>
<!-- Generator: Adobe Illustrator 23.0.4, SVG Export Plug-In . SVG Version: 6.00 Build 0)  -->
<svg version="1.1" id="Layer_1" xmlns="http://www.w3.org/2000/svg" xmlns:xlink="http://www.w3.org/1999/xlink" x="0px" y="0px"
	 viewBox="0 0 103 103" style="enable-background:new 0 0 103 103;" xml:space="preserve">
<style type="text/css">
	.st0{fill:none;stroke:#00A1E1;stroke-width:2;stroke-miterlimit:10;}
</style>
<g>
	<circle class="st0" cx="51.5" cy="51.5" r="50.5"/>
	<g>
		<ellipse class="st0" cx="51.5" cy="29.4" rx="12.1" ry="5.1"/>
		<line class="st0" x1="39.4" y1="29.4" x2="39.4" y2="46.8"/>
		<line class="st0" x1="63.6" y1="29.4" x2="63.6" y2="56.5"/>
		<path class="st0" d="M51.5,52.5C51.5,52.5,51.5,52.6,51.5,52.5c10.7-0.3,12.1-3.9,12.1-5.1c0-1.1,0-2,0-2"/>
		<path class="st0" d="M39.4,39.2c0,0,0,0.8,0,2.3c0,1.2,1.7,4.8,12.1,5.1c10.7-0.3,12.1-3.9,12.1-5.1c0-1.1,0-2,0-2"/>
		<path class="st0" d="M39.4,33.2c0,0,0,0.8,0,2.3c0,1.2,1.7,4.8,12.1,5.1c10.7-0.3,12.1-3.9,12.1-5.1c0-1.1,0-2,0-2"/>
		<ellipse class="st0" cx="39.4" cy="51.8" rx="12.1" ry="5.1"/>
		<line class="st0" x1="27.4" y1="51.8" x2="27.4" y2="69.8"/>
		<line class="st0" x1="51.5" y1="51.8" x2="51.5" y2="69.8"/>
		<path class="st0" d="M27.4,67.6c0,0,0,0.8,0,2.3c0,1.2,1.7,4.8,12.1,5.1c10.7-0.3,12.1-3.9,12.1-5.1c0-1.1,0-2,0-2"/>
		<path class="st0" d="M27.4,61.6c0,0,0,0.8,0,2.3c0,1.2,1.7,4.8,12.1,5.1c10.7-0.3,12.1-3.9,12.1-5.1c0-1.1,0-2,0-2"/>
		<path class="st0" d="M27.4,55.6c0,0,0,0.8,0,2.3c0,1.2,1.7,4.8,12.1,5.1c10.7-0.3,12.1-3.9,12.1-5.1c0-1.1,0-2,0-2"/>
		<ellipse class="st0" cx="63.6" cy="61.6" rx="12.1" ry="5.1"/>
		<line class="st0" x1="51.5" y1="63.8" x2="51.5" y2="73.6"/>
		<line class="st0" x1="75.6" y1="61.6" x2="75.6" y2="73.6"/>
		<path class="st0" d="M51.5,71.3c0,0,0,0.8,0,2.3c0,1.2,1.7,4.8,12.1,5.1c10.7-0.3,12.1-3.9,12.1-5.1c0-1.1,0-2,0-2"/>
		<path class="st0" d="M51.5,65.3c0,0,0,0.8,0,2.3c0,1.2,1.7,4.8,12.1,5.1c10.7-0.3,12.1-3.9,12.1-5.1c0-1.1,0-2,0-2"/>
		<path class="st0" d="M63.6,51.4c0,0,0,0.9,0,2c0,0.6-0.3,1.7-2.3,3.1l0,0"/>
		<path class="st0" d="M51.5,58.9c0,0,1.2,0,2-0.1"/>
	</g>
</g>
</svg>
