<?xml version="1.0" encoding="utf-8"?>
<!-- Generator: Adobe Illustrator 23.0.4, SVG Export Plug-In . SVG Version: 6.00 Build 0)  -->
<svg version="1.1" id="Layer_1" xmlns="http://www.w3.org/2000/svg" xmlns:xlink="http://www.w3.org/1999/xlink" x="0px" y="0px"
	 viewBox="0 0 105 105" style="enable-background:new 0 0 105 105;" xml:space="preserve">
<style type="text/css">
	.st0{fill:none;stroke:#00A1E1;stroke-width:2.0396;stroke-miterlimit:10;}
	.st1{fill:none;stroke:#00A1E1;stroke-width:2.0396;stroke-linecap:round;stroke-linejoin:round;stroke-miterlimit:10;}
</style>
<g>
	<circle class="st0" cx="52.5" cy="52.5" r="51.5"/>
	<g>
		<path class="st1" d="M58.1,27.7h-3.2c0-2.8-2.3-5.1-5.1-5.1s-5.1,2.3-5.1,5.1h-3.2c-2.6,0-4.7,2.1-4.7,4.7V35h25.9v-2.6
			C62.8,29.8,60.7,27.7,58.1,27.7z"/>
		<circle class="st1" cx="49.9" cy="27.7" r="1.2"/>
		<path class="st1" d="M33.6,27.7h-4.1c-1.8,0-3.3,1.5-3.3,3.3v48.2c0,1.8,1.5,3.3,3.3,3.3H70c1.8,0,3.3-1.5,3.3-3.3V65.4"/>
		<path class="st1" d="M66.1,27.7H70c1.8,0,3.3,1.5,3.3,3.3v10.7"/>
		<polyline class="st1" points="33.6,34.2 31.5,34.2 31.5,77.4 67.9,77.4 67.9,69.7 		"/>
		<polyline class="st1" points="66.1,34.2 67.9,34.2 67.9,48.4 		"/>
		<path class="st1" d="M62.2,70.2L55.5,71l0.9-6.7L78.7,42c0.5-0.5,1.4-0.4,2,0.2l3.6,3.6c0.6,0.6,0.7,1.5,0.2,2L62.2,70.2z"/>
		<line class="st1" x1="76.1" y1="44.9" x2="81.6" y2="50.5"/>
		<line class="st1" x1="58.5" y1="62.5" x2="64.1" y2="68"/>
		<line class="st1" x1="50.5" y1="41.7" x2="61.3" y2="41.7"/>
		<line class="st1" x1="50.5" y1="41.7" x2="61.3" y2="41.7"/>
		<line class="st1" x1="50.5" y1="47" x2="58.1" y2="47"/>
		<line class="st1" x1="50.5" y1="53.7" x2="61.3" y2="53.7"/>
		<line class="st1" x1="50.5" y1="59" x2="58.1" y2="59"/>
		<polyline class="st1" points="38.1,43.8 40.8,47 46.1,40.5 		"/>
		<polyline class="st1" points="38.1,55.8 40.8,59.1 46.1,52.6 		"/>
		<polyline class="st1" points="38.1,67.7 40.8,71 46.1,64.5 		"/>
	</g>
</g>
</svg>
