<svg xmlns="http://www.w3.org/2000/svg" viewBox="0 0 105 105" fill="none" stroke="#00a1e1" stroke-width="2.04"><circle cx="52.5" cy="52.5" r="51.5"/><g stroke-linejoin="round"><path d="M58.1 27.7h-3.2c0-2.8-2.3-5.1-5.1-5.1s-5.1 2.3-5.1 5.1h-3.2c-2.6 0-4.7 2.1-4.7 4.7V35h25.9v-2.6c.1-2.6-2-4.7-4.6-4.7z" stroke-miterlimit="10"/><circle cx="49.9" cy="27.7" r="1.2"/><g stroke-miterlimit="10"><g stroke-linecap="round"><path d="M33.6,27.7h-4.1c-1.8,0-3.3,1.5-3.3,3.3v48.2c0,1.8,1.5,3.3,3.3,3.3H70c1.8,0,3.3-1.5,3.3-3.3V65.4"/><path d="M66.1 27.7H70a3.33 3.33 0 0 1 3.3 3.3v10.7m-39.7-7.5h-2.1v43.2h36.4v-7.7"/><path d="M66.1 34.2h1.8v14.2"/></g><path d="M62.2 70.2l-6.7.8.9-6.7L78.7 42c.5-.5 1.4-.4 2 .2l3.6 3.6c.6.6.7 1.5.2 2L62.2 70.2z"/><path d="M76.1 44.9l5.5 5.6m-23.1 12l5.6 5.5M50.5 41.7h10.8M50.5 47h7.6m-7.6 6.7h10.8M50.5 59h7.6m-20-15.2l2.7 3.2 5.3-6.5m-8 15.3l2.7 3.3 5.3-6.5m-8 15.1l2.7 3.3 5.3-6.5" stroke-linecap="round"/></g></g></svg>