<svg xmlns="http://www.w3.org/2000/svg" viewBox="0 0 105 105" fill="none" stroke="#00a1e1" stroke-width="2.04"><circle cx="52.5" cy="52.5" r="51.5"/><g stroke-linejoin="round"><path d="M55 25.3l2.3 7.1c.3 1.1 1.4 1.8 2.5 1.8l7.5-.1c2.6 0 3.6 3.3 1.6 4.8l-6.1 4.4c-.9.7-1.3 1.9-1 3l2.4 7.1c.8 2.4-2 4.5-4.1 3l-6-4.4a2.55 2.55 0 0 0-3.1 0l-6 4.4c-2.1 1.5-4.9-.5-4.1-3l2.4-7.1c.4-1.1 0-2.3-1-3L36.2 39c-2.1-1.5-1-4.8 1.6-4.8l7.5.1c1.2 0 2.2-.7 2.5-1.8l2.3-7.1c.7-2.5 4.2-2.5 4.9-.1z" stroke-miterlimit="10"/><circle cx="52.5" cy="42.1" r="4.1"/><g stroke-miterlimit="10"><path d="M49.4 53.1l-2.9 16.1h12l-2.9-16.1s-1.4-1.6-3.1-1.6-3.1 1.6-3.1 1.6z"/><path d="M40.8 69.1h23.5v6.2H40.8zm-5.7 6.3h34.8v6.2H35.1z"/><path d="M35.4 25.1v4.3m-9.2 5.2h4.3" stroke-linecap="round"/></g></g></svg>